<svg id="Layer_1" data-name="Layer 1" xmlns="http://www.w3.org/2000/svg" xmlns:xlink="http://www.w3.org/1999/xlink" viewBox="0 0 254.57 254.57"><defs><style>.cls-1{fill:url(#linear-gradient);}.cls-2{fill:url(#linear-gradient-2);}.cls-3{fill:url(#linear-gradient-3);}.cls-4{fill:#463b16;}.cls-5{fill:#d4b93c;}</style><linearGradient id="linear-gradient" x1="225.28" y1="217.04" x2="334.05" y2="217.04" gradientUnits="userSpaceOnUse"><stop offset="0" stop-color="#b48e0b"/><stop offset="1" stop-color="#f7e670"/></linearGradient><linearGradient id="linear-gradient-2" x1="275.36" y1="216.84" x2="367.36" y2="216.84" xlink:href="#linear-gradient"/><linearGradient id="linear-gradient-3" x1="168.71" y1="215.98" x2="423.29" y2="215.98" xlink:href="#linear-gradient"/></defs><title>Ayad-logo</title><path class="cls-1" d="M308.78,280.29A64.67,64.67,0,0,0,334,275.22a70.78,70.78,0,0,1-38.32,11.16c-38.88,0-70.4-31-70.4-69.34s31.52-69.34,70.4-69.34a70.87,70.87,0,0,1,38.37,11.2,64.72,64.72,0,0,0-25.27-5.09c-35.46,0-64.21,28.31-64.21,63.23S273.32,280.29,308.78,280.29Z" transform="translate(-168.71 -88.69)"/><path class="cls-2" d="M367.36,216.84a56.57,56.57,0,0,1-92,44.11,50.68,50.68,0,1,0,0-88.21,56.57,56.57,0,0,1,92,44.1Z" transform="translate(-168.71 -88.69)"/><path class="cls-3" d="M296,88.69A127.29,127.29,0,1,0,423.29,216,127.28,127.28,0,0,0,296,88.69Zm.53,204.92A77.64,77.64,0,1,1,374.18,216,77.64,77.64,0,0,1,296.54,293.61Z" transform="translate(-168.71 -88.69)"/><path class="cls-4" d="M251.54,305c-2.28,3.18-3.46,4.76-5.88,7.85-1-.41-1.5-.63-2.49-1.07.27-2.16.41-3.25.73-5.4-1.32,1.7-2,2.54-3.34,4.21-1-.48-1.54-.72-2.55-1.23.6-3.93.94-5.88,1.69-9.76,1,.53,1.52.78,2.54,1.29-.43,2.22-.64,3.33-1,5.56,1.4-1.74,2.09-2.62,3.46-4.39.86.4,1.29.6,2.15,1-.32,2.25-.46,3.38-.73,5.64,1.35-1.8,2-2.71,3.32-4.53C250.26,304.54,250.69,304.71,251.54,305Z" transform="translate(-168.71 -88.69)"/><path class="cls-4" d="M257.24,314.72l-.65,2.17c-3-.94-4.47-1.45-7.41-2.58,1.3-3.57,1.95-5.35,3.24-8.92,2.73,1,4.11,1.53,6.88,2.4l-.62,2.1c-1.7-.53-2.54-.82-4.22-1.41l-.44,1.3c1.37.49,2.06.72,3.44,1.17-.24.81-.37,1.21-.61,2-1.41-.46-2.11-.69-3.5-1.19l-.49,1.47C254.6,313.87,255.48,314.16,257.24,314.72Z" transform="translate(-168.71 -88.69)"/><path class="cls-4" d="M257.8,317.27l2.62-9.13c1.88.57,2.82.83,4.71,1.32a3,3,0,0,1,2,1.28,2.57,2.57,0,0,1,.31,1.86,2.14,2.14,0,0,1-.69,1.16,2,2,0,0,1-1.39.47,2.21,2.21,0,0,1,1.41,2.62,2.81,2.81,0,0,1-1.09,1.69c-.58.43-1.62.47-3.12.07C260.64,318.11,259.69,317.84,257.8,317.27Zm4.31-4.85,1.36.37a.94.94,0,0,0,.79-.06.84.84,0,0,0,.34-.48q.18-.76-.78-1l-1.3-.36Zm-1,3.62c.59.17.89.25,1.48.4a1.07,1.07,0,0,0,.86,0,.79.79,0,0,0,.4-.5.86.86,0,0,0-.11-.65,1.29,1.29,0,0,0-.83-.51l-1.35-.37Z" transform="translate(-168.71 -88.69)"/><path class="cls-4" d="M271.24,320.58c.68-3.75,1-5.62,1.68-9.37,1.46.28,2.19.4,3.65.63a4.71,4.71,0,0,1,3.41,1.92,5.13,5.13,0,0,1,.84,3.42,4.57,4.57,0,0,1-1.74,3.28,4.73,4.73,0,0,1-3.71.83C273.71,321,272.89,320.89,271.24,320.58ZM274.7,319l.79.13a1.56,1.56,0,0,0,1.39-.5,3.1,3.1,0,0,0,.78-1.83,3.38,3.38,0,0,0-.22-1.84,1.47,1.47,0,0,0-1.19-.94l-.76-.12C275.17,315.9,275,316.92,274.7,319Z" transform="translate(-168.71 -88.69)"/><path class="cls-4" d="M289.42,320.41l-.09,2.27c-3.09-.14-4.63-.25-7.71-.58.38-3.79.57-5.68.94-9.47,2.86.3,4.3.41,7.17.54l-.1,2.19c-1.75-.08-2.62-.13-4.37-.27l-.11,1.37c1.43.12,2.15.17,3.58.24l-.11,2.11c-1.45-.07-2.18-.12-3.63-.24l-.12,1.55C286.69,320.27,287.6,320.33,289.42,320.41Z" transform="translate(-168.71 -88.69)"/><path class="cls-4" d="M299.14,313.21c-1.06,3.85-1.63,5.77-2.87,9.59-1.29,0-1.93,0-3.21,0-1.28-3.83-1.87-5.75-3-9.61,1.23.05,1.85.07,3.08.09.58,2.08.88,3.12,1.5,5.2.11.31.2.61.29.91.74-2.44,1.09-3.66,1.76-6.11C297.69,313.26,298.17,313.24,299.14,313.21Z" transform="translate(-168.71 -88.69)"/><path class="cls-4" d="M307.88,319.86l.22,2.27c-3.07.32-4.61.43-7.7.56-.16-3.81-.23-5.71-.38-9.51,2.86-.13,4.3-.23,7.16-.53l.21,2.19c-1.74.18-2.62.25-4.37.37l.09,1.38c1.43-.1,2.14-.16,3.57-.29l.19,2.1c-1.45.14-2.17.2-3.63.3l.1,1.55C305.16,320.13,306.07,320.05,307.88,319.86Z" transform="translate(-168.71 -88.69)"/><path class="cls-4" d="M316.12,318.67c.15.92.22,1.38.37,2.31-2.85.48-4.28.69-7.14,1-.41-3.78-.61-5.68-1-9.46,1.17-.13,1.75-.21,2.91-.37.38,2.85.56,4.27.94,7.12C313.76,319.06,314.54,318.94,316.12,318.67Z" transform="translate(-168.71 -88.69)"/><path class="cls-4" d="M321.84,320.09a4.61,4.61,0,0,1-3.71-.61,4.71,4.71,0,0,1-1.92-3.27,5.25,5.25,0,0,1,.64-3.7,5,5,0,0,1,6.54-1.49,4.79,4.79,0,0,1,2.06,3.09A4.91,4.91,0,0,1,325,318,4.66,4.66,0,0,1,321.84,320.09ZM321.4,318a1.22,1.22,0,0,0,1-.88,5.63,5.63,0,0,0-.16-2.38q-.53-2.42-1.86-2.13c-1,.21-1.26,1.23-.9,3.08S320.44,318.19,321.4,318Z" transform="translate(-168.71 -88.69)"/><path class="cls-4" d="M330.08,314.29l.92,3.32c-1.24.37-1.86.54-3.11.88l-2.32-9.22c1.59-.43,2.38-.65,4-1.13a6.31,6.31,0,0,1,2.34-.37,2.72,2.72,0,0,1,1.53.61,2.78,2.78,0,0,1,1,1.37,2.73,2.73,0,0,1-.28,2.41,4,4,0,0,1-2.31,1.62Zm-.59-2,1-.29c.86-.26,1.2-.7,1-1.3s-.65-.73-1.43-.49l-1.06.31C329.19,311.27,329.29,311.63,329.49,312.33Z" transform="translate(-168.71 -88.69)"/><path class="cls-4" d="M344,310.58l.84,2.1c-2.91,1.23-4.38,1.8-7.34,2.84l-3-9c2.75-1,4.11-1.5,6.82-2.65.32.82.49,1.22.81,2-1.65.69-2.48,1-4.15,1.66l.47,1.3c1.36-.52,2-.79,3.39-1.35l.77,2c-1.37.57-2.06.84-3.45,1.37.21.58.32.88.52,1.46C341.39,311.65,342.25,311.3,344,310.58Z" transform="translate(-168.71 -88.69)"/><path class="cls-4" d="M354.46,308.12c-1.28.67-1.92,1-3.22,1.63-1.16-1.05-1.73-1.57-2.87-2.64l-.9.42c.58,1.33.88,2,1.46,3.32-1.17.55-1.76.81-2.95,1.33l-3.6-8.77c1.87-.82,2.8-1.24,4.64-2.14a4.09,4.09,0,0,1,2.7-.49,2.42,2.42,0,0,1,1.74,1.37,2.54,2.54,0,0,1-.49,3.12C352.35,306.43,353.05,307,354.46,308.12Zm-7.8-2.44,1.19-.57a1.72,1.72,0,0,0,.76-.61.76.76,0,0,0,0-.77c-.25-.55-.73-.65-1.44-.31l-1.27.6Z" transform="translate(-168.71 -88.69)"/><path class="cls-4" d="M267.07,128.52c-1-1.44-1.58-2.15-2.67-3.56-2.51.77-3.76,1.2-6.23,2.14.12,1.75.2,2.62.38,4.35-2.18.87-3.25,1.34-5.38,2.35a115.5,115.5,0,0,1-1.92-22.33c3.57-1.36,5.38-2,9-3a120.91,120.91,0,0,1,13.9,18.31C271.31,127.34,269.88,127.69,267.07,128.52Zm-9.51-6.14c1.58-.58,2.37-.85,4-1.37C259.87,119,259,118,257.26,116,257.32,118.53,257.38,119.81,257.56,122.38Z" transform="translate(-168.71 -88.69)"/><path class="cls-4" d="M293.43,103.61a87,87,0,0,0-8,12.49c.33,3.55.5,5.33.83,8.88-2.77.22-4.15.38-6.9.81-.63-3.52-.94-5.28-1.57-8.8A88.18,88.18,0,0,0,266,106.9c3.82-.91,5.75-1.29,9.63-1.88,2.51,2.42,3.7,3.67,5.95,6.22,1.46-3,2.26-4.43,4-7.34C288.74,103.69,290.3,103.63,293.43,103.61Z" transform="translate(-168.71 -88.69)"/><path class="cls-4" d="M306,125.4c-.28-1.71-.44-2.57-.78-4.27-2.6-.29-3.91-.39-6.53-.51-.67,1.63-1,2.45-1.61,4.09-2.32-.07-3.48-.07-5.8,0a118.44,118.44,0,0,1,8.28-21c3.78.17,5.67.33,9.43.8a114.67,114.67,0,0,1,4.22,22C310.34,126,308.89,125.76,306,125.4Zm-5.73-9.3c1.66.09,2.5.16,4.15.32-.55-2.51-.86-3.77-1.53-6.27C301.78,112.52,301.26,113.71,300.26,116.1Z" transform="translate(-168.71 -88.69)"/><path class="cls-4" d="M315.31,127l5.33-20.46a96.88,96.88,0,0,1,10.91,3c4.68,1.53,7.69,3.94,8.92,6.79a8.63,8.63,0,0,1-.29,8,11.21,11.21,0,0,1-6.73,5.48,14.06,14.06,0,0,1-9-.24A77,77,0,0,0,315.31,127Zm8.56-2.76c.76.23,1.14.35,1.89.6a4.45,4.45,0,0,0,3.62-.41,6.84,6.84,0,0,0,3-3.47,6,6,0,0,0,.4-4.12,4,4,0,0,0-2.9-2.78c-.85-.28-1.27-.42-2.13-.68C326.18,117.75,325.41,119.92,323.87,124.26Z" transform="translate(-168.71 -88.69)"/><path class="cls-5" d="M100.33,150.92h45.16a9.64,9.64,0,0,1,9.64,9.64v0a0,0,0,0,1,0,0H110a9.64,9.64,0,0,1-9.64-9.64v0a0,0,0,0,1,0,0Z"/><path class="cls-5" d="M322.89,230.69h0a9.81,9.81,0,0,1-13-4.91L293.32,189l8.73-4.11Z" transform="translate(-168.71 -88.69)"/><path class="cls-5" d="M271.14,230.28h0a1.94,1.94,0,0,1-.59-2.22l17.67-37.31c2-4.25,2.42-5.87,3.59-5.87h10.24l-19.6,41.31A8.51,8.51,0,0,1,271.14,230.28Z" transform="translate(-168.71 -88.69)"/><path class="cls-5" d="M284.15,207.35h0a9.8,9.8,0,0,1,9.8,9.8v18.5a9.8,9.8,0,0,1-9.8,9.8h0a0,0,0,0,1,0,0v-38.1A0,0,0,0,1,284.15,207.35Z" transform="translate(-106.06 426.76) rotate(-90)"/></svg>